<svg xmlns="http://www.w3.org/2000/svg" xmlns:xlink="http://www.w3.org/1999/xlink" width="33.643" height="48" viewBox="0 0 33.643 48"><defs><style>.a{fill:url(#a);}.b{fill:url(#b);}.c{fill:#fff;}</style><linearGradient id="a" x1="-0.137" y1="-0.024" x2="0.955" y2="1" gradientUnits="objectBoundingBox"><stop offset="0" stop-color="#1c85c8"/><stop offset="1" stop-color="#283c8c"/></linearGradient><linearGradient id="b" x1="-0.137" y1="-0.024" x2="0.955" y2="1" gradientUnits="objectBoundingBox"><stop offset="0" stop-color="#fff" stop-opacity="0.4"/><stop offset="1" stop-color="#283c8c" stop-opacity="0.2"/></linearGradient></defs><g transform="translate(-418 -317.999)"><g transform="translate(418 317.999)"><path class="a" d="M0,16.8a16.821,16.821,0,0,1,33.642,0C33.642,29.4,21.58,48,16.821,48S0,29.4,0,16.8Z" transform="translate(0 0)"/><g transform="translate(0.116 0)"><path class="b" d="M-255.7-207.646h0l-28.284-19.8A16.8,16.8,0,0,1-278.488-238a16.962,16.962,0,0,1,2.4-1.8,16.819,16.819,0,0,1,2.706-1.35,16.7,16.7,0,0,1,6.1-1.146,16.84,16.84,0,0,1,16.821,16.821,25.022,25.022,0,0,1-.4,4.292,37.626,37.626,0,0,1-1.107,4.528c-.457,1.485-1.017,3.024-1.663,4.574-.616,1.477-1.313,2.968-2.071,4.432Z" transform="translate(283.982 242.293)"/><path class="c" d="M32.074,159.794l-9.992-3.437c-.623-.225-.492-.228-1.111,0l-10.052,3.409c-.616.223-.614.587.009.814l2.39.81a4.1,4.1,0,0,0-1.141,3.326,1.092,1.092,0,0,0-.1,1.994A8.331,8.331,0,0,1,10,171.1a4.737,4.737,0,0,0,1.615.909c1.99-.856,1.748-3.128,1.594-5.39a1.09,1.09,0,0,0-.062-1.808,3.665,3.665,0,0,1,1.2-2.995c.007-.018.03-.034.069-.051l6.869-2.776a.5.5,0,0,1,.646.276l.009.021a.495.495,0,0,1-.276.646l-5.8,2.321,5.194,1.762c.623.225.492.228,1.111,0l9.914-3.407c.616-.223.614-.589-.009-.812Zm-11.032,5.534L14.752,163.2v1.6a1.621,1.621,0,0,1,.511,1.214,1.706,1.706,0,0,1-.4,1.118.877.877,0,0,0,.437.575,13.694,13.694,0,0,0,12.785-.2,1.261,1.261,0,0,0,.536-.863v-3.531l-6.459,2.224C21.538,165.557,21.662,165.554,21.041,165.329Z" transform="translate(-4.604 -147.541)"/></g></g></g></svg>